<svg t="1746721726934" class="icon" viewBox="0 0 1024 1024" version="1.1" xmlns="http://www.w3.org/2000/svg" p-id="39644" width="200" height="200"><path d="M659.809103 268.817655c-61.651862 0-112.110345 37.640828-144.41931 37.640828-34.321655 0-79.024552-35.169103-132.802207-35.169104-102.223448 0-205.682759 84.391724-205.682758 243.288276 0 99.328 38.099862 204.023172 85.662896 271.465931 40.571586 57.096828 76.164414 103.883034 127.470345 103.883035 50.493793 0 72.809931-33.544828 135.697655-33.544828 63.735172 0 78.212414 32.697379 134.073379 32.697379 55.437241 0 92.301241-50.882207 127.470345-100.987586 38.87669-57.485241 55.437241-113.346207 55.860966-116.241655-3.319172-0.847448-109.250207-44.279172-109.250207-165.534897 0-105.083586 83.155862-152.258207 88.134621-156.001103-55.048828-79.024552-139.052138-81.496276-162.215725-81.496276z m-28.954482-67.054345c25.246897-30.614069 43.04331-72.386207 43.04331-114.617379 0-5.790897-0.423724-11.581793-1.235862-16.136828-41.383724 1.659586-91.065379 27.330207-120.408276 62.075587-23.622621 26.482759-45.126621 68.678621-45.126621 110.874482 0 6.638345 1.235862 12.852966 1.659587 14.936276 2.471724 0.388414 6.603034 1.235862 11.158069 1.235862 36.82869 0 83.191172-24.823172 110.909793-58.368z" fill="#000000" fill-opacity=".85" p-id="39645"></path></svg>